HIERARCHY
ROOT joint_0
{
	OFFSET 0.000000 0.000000 0.000000
	CHANNELS 6 Xposition Yposition Zposition Zrotation Yrotation Xrotation 
	JOINT joint_1
	{
		OFFSET 6.004005 -1.946999 100.587036
		CHANNELS 3 Zrotation Yrotation Xrotation
		JOINT joint_2
		{
			OFFSET -4.601006 -0.824997 91.925903
			CHANNELS 3 Zrotation Yrotation Xrotation
			JOINT joint_3
			{
				OFFSET -5.420998 -1.130005 91.774048
				CHANNELS 3 Zrotation Yrotation Xrotation
				JOINT joint_4
				{
					OFFSET 4.308998 -3.777992 123.473999
					CHANNELS 3 Zrotation Yrotation Xrotation
					JOINT joint_5
					{
						OFFSET 25.565002 -6.305008 79.437988
						CHANNELS 3 Zrotation Yrotation Xrotation
						End Site
						{
							OFFSET 0.000000 0.000000 0.000000
						}
					}
				}
				JOINT joint_6
				{
					OFFSET -1.750000 -28.655998 68.557983
					CHANNELS 3 Zrotation Yrotation Xrotation
					JOINT joint_7
					{
						OFFSET -17.692001 -116.544006 -17.244019
						CHANNELS 3 Zrotation Yrotation Xrotation
						JOINT joint_8
						{
							OFFSET 27.063004 -23.640991 -266.895020
							CHANNELS 3 Zrotation Yrotation Xrotation
							JOINT joint_9
							{
								OFFSET 40.722000 -15.761017 -232.488953
								CHANNELS 3 Zrotation Yrotation Xrotation
								End Site
								{
									OFFSET 0.000000 0.000000 0.000000
								}
							}
						}
					}
				}
				JOINT joint_10
				{
					OFFSET 6.593002 24.457001 69.892944
					CHANNELS 3 Zrotation Yrotation Xrotation
					JOINT joint_11
					{
						OFFSET 24.311996 114.920002 -19.872925
						CHANNELS 3 Zrotation Yrotation Xrotation
						JOINT joint_12
						{
							OFFSET 21.081001 15.319000 -268.037964
							CHANNELS 3 Zrotation Yrotation Xrotation
							JOINT joint_13
							{
								OFFSET 27.794006 -8.947001 -234.744080
								CHANNELS 3 Zrotation Yrotation Xrotation
								End Site
								{
									OFFSET 0.000000 0.000000 0.000000
								}
							}
						}
					}
				}
			}
		}
	}
	JOINT joint_14
	{
		OFFSET -6.627998 -80.520004 -98.790039
		CHANNELS 3 Zrotation Yrotation Xrotation
		JOINT joint_15
		{
			OFFSET -43.638000 -13.751999 -502.538971
			CHANNELS 3 Zrotation Yrotation Xrotation
			JOINT joint_16
			{
				OFFSET -39.532999 -9.912994 -398.071007
				CHANNELS 3 Zrotation Yrotation Xrotation
				JOINT joint_17
				{
					OFFSET 174.940004 -34.660995 -75.688002
					CHANNELS 3 Zrotation Yrotation Xrotation
					End Site
					{
						OFFSET 0.000000 0.000000 0.000000
					}
				}
			}
		}
	}
	JOINT joint_18
	{
		OFFSET 12.591003 79.842003 -98.765015
		CHANNELS 3 Zrotation Yrotation Xrotation
		JOINT joint_19
		{
			OFFSET -39.080002 -1.297001 -503.101013
			CHANNELS 3 Zrotation Yrotation Xrotation
			JOINT joint_20
			{
				OFFSET -51.570000 -0.514000 -396.815987
				CHANNELS 3 Zrotation Yrotation Xrotation
				JOINT joint_21
				{
					OFFSET 178.987999 -11.521999 -73.244003
					CHANNELS 3 Zrotation Yrotation Xrotation
					End Site
					{
						OFFSET 0.000000 0.000000 0.000000
					}
				}
			}
		}
	}
}
MOTION
Frames: 12
Frame Time: 0.016667
-2432.353027 922.293213 1097.734009 3.864040 -0.445230 0.605381 0.240019 0.578478 -1.585138 0.331080 -0.107317 0.359245 0.297697 0.111435 -0.245678 -0.019777 -1.527025 -0.327969 0.000000 0.000000 0.000000 2.101419 2.874601 1.374661 0.017680 2.937237 3.067228 -0.379346 2.451240 -1.078618 0.000000 0.000000 0.000000 2.073168 0.035157 1.474078 -0.127293 0.601168 -2.987103 0.489175 0.702755 4.731396 0.000000 0.000000 0.000000 -1.666919 1.576957 -0.621294 -1.676660 -3.662344 1.229429 -1.673309 2.323293 -0.262449 0.000000 0.000000 0.000000 -0.813473 -2.862677 3.156721 -0.439312 -0.537087 -1.594260 -0.647908 3.671506 -0.027428 0.000000 0.000000 0.000000 
-2432.592773 922.185059 1097.735962 3.883836 -0.459284 0.599523 0.236598 0.586636 -1.573610 0.326909 -0.108797 0.355376 0.293968 0.113718 -0.243036 -0.020354 -1.520423 -0.324533 0.000000 0.000000 0.000000 2.084328 2.885099 1.382386 0.017897 2.945308 3.074797 -0.379252 2.446455 -1.080406 0.000000 0.000000 0.000000 2.042956 0.036340 1.488227 -0.127600 0.609444 -2.982065 0.489237 0.717979 4.736189 0.000000 0.000000 0.000000 -1.675884 1.577945 -0.613483 -1.685870 -3.657840 1.239908 -1.681045 2.323826 -0.265674 0.000000 0.000000 0.000000 -0.820940 -2.878085 3.173369 -0.444718 -0.507543 -1.603569 -0.654177 3.667508 -0.030231 0.000000 0.000000 0.000000 
-2432.826416 922.077759 1097.739014 3.905578 -0.473827 0.593456 0.233157 0.590014 -1.565975 0.323045 -0.109202 0.354284 0.290269 0.114870 -0.241697 -0.020835 -1.511180 -0.320717 0.000000 0.000000 0.000000 2.067056 2.897636 1.391090 0.017875 2.955465 3.083162 -0.379641 2.443608 -1.083942 0.000000 0.000000 0.000000 2.013847 0.040809 1.501455 -0.127430 0.620006 -2.973737 0.489387 0.731999 4.741678 0.000000 0.000000 0.000000 -1.685590 1.580396 -0.605607 -1.695796 -3.654230 1.250985 -1.689468 2.325259 -0.269018 0.000000 0.000000 0.000000 -0.829256 -2.892178 3.190496 -0.450862 -0.479682 -1.613501 -0.661238 3.665187 -0.033249 0.000000 0.000000 0.000000 
-2433.042236 921.970215 1097.739990 3.927752 -0.488246 0.587554 0.229728 0.584888 -1.563145 0.319499 -0.107926 0.354754 0.286636 0.113931 -0.242090 -0.021694 -1.499142 -0.314996 0.000000 0.000000 0.000000 2.052813 2.914264 1.400843 0.017646 2.969857 3.094908 -0.380772 2.444112 -1.090000 0.000000 0.000000 0.000000 1.990349 0.049547 1.513342 -0.126885 0.632904 -2.961941 0.489893 0.746613 4.751418 0.000000 0.000000 0.000000 -1.695653 1.585309 -0.598597 -1.706135 -3.654053 1.263833 -1.698254 2.328019 -0.272255 0.000000 0.000000 0.000000 -0.838316 -2.903021 3.208222 -0.457583 -0.457573 -1.624483 -0.669008 3.666852 -0.036297 0.000000 0.000000 0.000000 
-2433.248047 921.863464 1097.739990 3.950987 -0.503307 0.581381 0.226708 0.574510 -1.563528 0.316537 -0.106800 0.355928 0.283465 0.112026 -0.243642 -0.022899 -1.484386 -0.307498 0.000000 0.000000 0.000000 2.039199 2.933967 1.411029 0.017291 2.987059 3.109657 -0.382591 2.447650 -1.098428 0.000000 0.000000 0.000000 1.968371 0.062050 1.525032 -0.125804 0.648701 -2.947047 0.490676 0.759946 4.763773 0.000000 0.000000 0.000000 -1.706238 1.592606 -0.592063 -1.717068 -3.656002 1.278575 -1.707496 2.331187 -0.275607 0.000000 0.000000 0.000000 -0.848104 -2.911147 3.226597 -0.464912 -0.439246 -1.635862 -0.677426 3.671322 -0.039428 0.000000 0.000000 0.000000 
-2433.442627 921.758606 1097.738037 3.974910 -0.518457 0.574962 0.223585 0.559937 -1.565616 0.313617 -0.103446 0.358157 0.280202 0.109412 -0.245606 -0.024572 -1.470720 -0.298822 0.000000 0.000000 0.000000 2.026745 2.954811 1.421199 0.016735 3.005805 3.123083 -0.384330 2.451989 -1.106008 0.000000 0.000000 0.000000 1.951043 0.076139 1.534851 -0.124811 0.664726 -2.931489 0.491519 0.774735 4.777654 0.000000 0.000000 0.000000 -1.717220 1.600966 -0.584259 -1.728044 -3.658597 1.291167 -1.717025 2.334954 -0.278965 0.000000 0.000000 0.000000 -0.857946 -2.917726 3.245590 -0.472148 -0.422951 -1.648225 -0.685893 3.677717 -0.042454 0.000000 0.000000 0.000000 
-2433.629395 921.653564 1097.732056 3.999157 -0.534151 0.567586 0.220095 0.547986 -1.565678 0.310033 -0.103764 0.356884 0.276791 0.109062 -0.243958 -0.026428 -1.459391 -0.290171 0.000000 0.000000 0.000000 2.017253 2.975857 1.429921 0.015859 3.025526 3.133073 -0.385468 2.453106 -1.111660 0.000000 0.000000 0.000000 1.940178 0.089985 1.541210 -0.124305 0.678732 -2.916674 0.492310 0.792597 4.792567 0.000000 0.000000 0.000000 -1.728368 1.610162 -0.572689 -1.738336 -3.660442 1.297961 -1.726381 2.337494 -0.282490 0.000000 0.000000 0.000000 -0.867773 -2.922655 3.266559 -0.479034 -0.408215 -1.662566 -0.694277 3.685296 -0.045370 0.000000 0.000000 0.000000 
-2433.805908 921.549377 1097.722046 4.022979 -0.550591 0.559471 0.216467 0.535037 -1.565664 0.306326 -0.104044 0.356064 0.273177 0.110242 -0.243512 -0.029381 -1.451371 -0.278937 0.000000 0.000000 0.000000 2.009892 2.997007 1.439103 0.014787 3.046135 3.140630 -0.386205 2.453322 -1.115454 0.000000 0.000000 0.000000 1.936719 0.103713 1.546598 -0.124233 0.691224 -2.902649 0.493199 0.813541 4.810116 0.000000 0.000000 0.000000 -1.739707 1.620886 -0.558263 -1.748114 -3.662762 1.300328 -1.735663 2.339627 -0.286065 0.000000 0.000000 0.000000 -0.877009 -2.925077 3.289104 -0.485029 -0.395871 -1.678733 -0.702043 3.694038 -0.047959 0.000000 0.000000 0.000000 
-2433.971680 921.454041 1097.711060 4.049303 -0.567105 0.550980 0.211987 0.520590 -1.564359 0.301606 -0.104558 0.353362 0.268732 0.110311 -0.241784 -0.031725 -1.444459 -0.269902 0.000000 0.000000 0.000000 2.005009 3.019066 1.446921 0.013440 3.068043 3.146875 -0.387167 2.455390 -1.119626 0.000000 0.000000 0.000000 1.934448 0.119849 1.550876 -0.124058 0.706035 -2.890187 0.494011 0.832854 4.826356 0.000000 0.000000 0.000000 -1.751847 1.632123 -0.545045 -1.759035 -3.663855 1.305218 -1.745751 2.341253 -0.290088 0.000000 0.000000 0.000000 -0.886802 -2.927782 3.311246 -0.491632 -0.382162 -1.694565 -0.710349 3.703266 -0.050737 0.000000 0.000000 0.000000 
-2434.127930 921.372498 1097.701050 4.078189 -0.582722 0.542390 0.206329 0.502099 -1.563650 0.295840 -0.103163 0.352518 0.262983 0.108036 -0.241446 -0.033024 -1.438585 -0.264418 0.000000 0.000000 0.000000 2.003467 3.041402 1.454491 0.011742 3.091025 3.151174 -0.388661 2.461921 -1.124677 0.000000 0.000000 0.000000 1.930805 0.139660 1.555162 -0.123355 0.725192 -2.879322 0.494667 0.846872 4.838863 0.000000 0.000000 0.000000 -1.764540 1.642196 -0.535709 -1.771523 -3.662834 1.316648 -1.756678 2.343140 -0.294423 0.000000 0.000000 0.000000 -0.896627 -2.933899 3.331195 -0.498678 -0.362986 -1.707636 -0.718743 3.712533 -0.053549 0.000000 0.000000 0.000000 
-2434.272949 921.302856 1097.692017 4.108303 -0.597447 0.533411 0.200634 0.478054 -1.563764 0.290220 -0.098914 0.354261 0.257059 0.104806 -0.242868 -0.033860 -1.434658 -0.260894 0.000000 0.000000 0.000000 2.002339 3.064058 1.461954 0.009704 3.114799 3.152961 -0.390505 2.471941 -1.130079 0.000000 0.000000 0.000000 1.924768 0.162108 1.559229 -0.122280 0.747717 -2.869889 0.495240 0.857039 4.849011 0.000000 0.000000 0.000000 -1.777858 1.651150 -0.529053 -1.785413 -3.659837 1.333206 -1.768415 2.344875 -0.299138 0.000000 0.000000 0.000000 -0.906196 -2.942011 3.349816 -0.505729 -0.340727 -1.718891 -0.726919 3.722001 -0.056262 0.000000 0.000000 0.000000 
-2434.399170 921.236816 1097.681030 4.143259 -0.611809 0.525028 0.192248 0.452721 -1.564504 0.281958 -0.093891 0.356256 0.248446 0.100002 -0.244248 -0.034138 -1.431998 -0.259433 0.000000 0.000000 0.000000 2.005808 3.087479 1.466998 0.007702 3.139343 3.156651 -0.392667 2.483389 -1.136544 0.000000 0.000000 0.000000 1.925059 0.186523 1.564111 -0.121383 0.772170 -2.864754 0.495758 0.866015 4.858346 0.000000 0.000000 0.000000 -1.792675 1.662011 -0.523327 -1.800843 -3.658208 1.350455 -1.781565 2.346046 -0.304575 0.000000 0.000000 0.000000 -0.916967 -2.949774 3.368822 -0.513679 -0.319202 -1.733218 -0.736333 3.732502 -0.059410 0.000000 0.000000 0.000000 
